<?xml version="1.0" standalone="no"?>
<!DOCTYPE svg PUBLIC "-//W3C//DTD SVG 20010904//EN"
 "http://www.w3.org/TR/2001/REC-SVG-20010904/DTD/svg10.dtd">
<svg version="1.0" xmlns="http://www.w3.org/2000/svg"
 width="557.000000pt" height="478.000000pt" viewBox="0 0 557.000000 478.000000"
 preserveAspectRatio="xMidYMid meet">

<g transform="translate(0.000000,478.000000) scale(0.100000,-0.100000)"
fill="#000000" stroke="none">
<path d="M1031 4633 c-44 -22 -125 -103 -166 -167 -173 -271 -286 -715 -320
-1259 -4 -60 -10 -105 -15 -100 -13 14 -69 313 -86 463 -14 120 -15 182 -8
360 12 295 11 430 -4 457 -26 46 -157 49 -193 4 -90 -110 -124 -540 -68 -831
28 -143 115 -422 174 -556 29 -65 87 -130 130 -144 36 -12 119 3 133 24 3 6
10 151 14 321 4 199 12 349 22 420 65 440 190 774 341 914 48 44 91 69 102 58
14 -15 20 -104 12 -186 -5 -47 -40 -241 -79 -431 -81 -404 -105 -590 -96 -737
13 -198 64 -332 150 -390 42 -29 57 -33 112 -33 61 0 67 2 109 41 70 65 203
346 306 647 53 156 56 172 35 172 -21 0 -35 -28 -126 -245 -46 -110 -99 -231
-118 -270 -88 -178 -172 -295 -197 -275 -24 20 -39 104 -38 215 1 129 11 214
63 540 60 366 79 509 86 635 10 190 -28 315 -109 353 -45 22 -122 21 -166 0z"/>
<path d="M1835 4577 c-38 -32 -43 -102 -45 -553 -2 -388 -14 -779 -26 -847 -8
-43 -16 -49 -106 -67 -103 -21 -197 -108 -198 -183 0 -90 59 -132 185 -132
100 0 169 29 241 103 l51 51 74 -30 c99 -41 204 -67 298 -75 69 -6 85 -3 167
25 50 17 94 31 97 31 2 0 8 -21 12 -47 10 -69 43 -169 60 -183 20 -17 94 -18
104 -2 4 7 11 66 14 130 7 118 23 245 53 402 23 125 55 260 61 260 3 0 21 -13
39 -30 65 -56 205 -81 322 -56 225 47 404 247 477 531 29 115 42 299 25 378
-14 69 -70 156 -122 192 -87 59 -207 55 -291 -9 -59 -45 -174 -189 -229 -288
-103 -186 -213 -469 -279 -718 -36 -135 -51 -168 -44 -95 3 28 12 122 21 210
8 88 26 240 39 339 13 98 21 185 18 193 -8 21 -47 33 -109 33 -87 0 -109 -34
-149 -227 -43 -209 -64 -686 -37 -868 12 -84 11 -86 -78 -115 -105 -34 -145
-35 -223 -6 -60 23 -267 123 -267 129 0 1 9 29 19 62 47 151 56 256 56 680 0
404 -8 535 -42 687 -11 52 -21 73 -45 93 -40 34 -106 35 -143 2z m1658 -125
c50 -56 67 -202 43 -376 -21 -145 -54 -253 -114 -371 -78 -152 -227 -278 -328
-278 -45 0 -90 22 -160 79 l-42 35 15 47 c85 262 183 484 273 617 64 96 179
212 240 242 54 27 53 27 73 5z m-1763 -1413 c0 -32 -46 -122 -78 -153 l-29
-27 -22 27 c-39 50 -18 119 47 153 50 27 82 27 82 0z"/>
<path d="M3735 3750 c-79 -31 -247 -316 -308 -520 -70 -233 -53 -340 54 -340
32 0 44 7 83 51 25 27 75 95 112 150 37 54 69 97 71 95 2 -2 -4 -30 -13 -62
-9 -32 -18 -116 -21 -187 l-6 -127 32 -65 c46 -94 113 -125 194 -91 100 41
212 271 290 597 34 140 66 373 53 386 -19 19 -37 -32 -51 -142 -41 -320 -73
-445 -163 -624 -70 -141 -164 -227 -207 -191 -45 37 -50 251 -9 425 52 226 51
215 30 230 -30 23 -59 0 -158 -124 -130 -161 -207 -251 -218 -251 -11 0 14
106 51 215 41 119 102 249 194 409 41 73 75 138 75 144 0 13 -32 32 -52 31 -7
0 -22 -4 -33 -9z"/>
<path d="M4745 3516 c-13 -13 -37 -51 -54 -85 -17 -33 -32 -61 -34 -61 -1 0
-27 7 -57 15 -72 19 -120 20 -120 0 0 -15 84 -45 126 -45 13 0 25 -4 28 -8 2
-4 -10 -48 -29 -98 -18 -49 -41 -127 -51 -174 -19 -91 -27 -107 -111 -212
-117 -147 -170 -118 -128 69 18 79 23 92 83 237 44 104 45 109 27 122 -26 19
-80 18 -100 -2 -81 -82 -141 -389 -93 -479 26 -49 55 -70 99 -70 31 0 46 8 79
40 23 22 55 61 73 87 18 26 35 48 38 48 4 0 8 -37 11 -82 3 -52 11 -98 23
-122 20 -42 66 -76 103 -76 35 0 100 74 172 199 55 95 65 108 68 84 11 -121
28 -153 82 -153 26 0 34 8 69 69 56 95 113 165 169 206 90 66 92 42 13 -138
-65 -148 -91 -226 -98 -301 -9 -99 32 -156 111 -156 31 0 45 7 72 35 62 66
261 410 252 437 -2 6 -23 -22 -45 -63 -84 -153 -230 -359 -254 -359 -21 0 -5
75 55 254 80 238 86 287 41 331 -61 62 -172 7 -283 -137 -20 -27 -39 -48 -43
-48 -7 0 66 273 110 404 16 49 27 96 24 104 -7 16 -45 32 -77 32 -49 0 -104
-92 -150 -250 -13 -47 -27 -108 -31 -135 -13 -87 -210 -375 -257 -375 -50 0
-12 230 82 505 23 66 45 124 50 128 4 5 43 2 85 -7 74 -15 101 -14 90 4 -3 4
-37 16 -77 25 -40 10 -76 19 -80 22 -4 2 2 23 12 46 27 60 36 123 20 142 -19
23 -67 18 -95 -9z"/>
<path d="M4414 3469 c-25 -28 -8 -54 37 -54 28 0 35 4 37 24 3 15 -3 30 -14
38 -25 18 -38 16 -60 -8z"/>
<path d="M480 2789 c-25 -5 -82 -27 -128 -49 -204 -101 -333 -317 -333 -559 0
-100 12 -160 51 -246 41 -90 96 -156 255 -305 132 -124 235 -238 235 -262 0
-5 -35 -44 -78 -86 -231 -227 -322 -451 -244 -602 53 -104 154 -149 296 -131
239 29 391 213 390 471 0 129 -35 243 -114 372 -17 26 -30 54 -30 61 1 6 26
32 56 56 30 24 97 84 148 132 52 49 98 89 103 89 4 0 21 -38 37 -84 39 -115
95 -216 136 -244 54 -36 178 -28 194 14 4 10 18 76 32 148 45 238 94 387 166
511 52 89 128 179 140 167 13 -13 28 -177 23 -257 -13 -206 -15 -444 -5 -565
24 -293 77 -425 199 -494 46 -25 66 -30 121 -30 153 0 189 68 266 497 19 111
37 203 38 205 2 1 16 -37 30 -85 62 -199 163 -354 252 -383 81 -27 189 15 241
94 38 56 102 219 144 361 17 61 34 117 36 125 3 9 20 -15 40 -58 63 -132 125
-172 234 -152 46 8 61 17 100 59 52 56 63 79 187 416 49 132 93 240 98 240 20
0 35 -199 37 -483 l2 -293 -95 -91 c-372 -357 -429 -419 -534 -580 -94 -144
-146 -280 -146 -380 0 -57 24 -138 51 -172 74 -94 271 -99 444 -10 233 119
402 370 498 739 44 169 58 278 64 514 l6 224 47 71 c25 39 60 95 76 123 16 29
31 53 34 53 3 0 11 -41 18 -92 14 -99 60 -250 94 -308 66 -111 157 -162 251
-141 23 6 54 12 69 16 88 18 166 164 248 463 75 274 109 492 75 492 -16 0 -16
-1 -70 -240 -68 -305 -175 -584 -245 -644 -41 -34 -82 -34 -109 0 -68 86 -88
381 -46 662 8 53 17 131 21 173 6 72 5 77 -17 93 -46 32 -157 15 -203 -31 -36
-36 -66 -139 -73 -253 -4 -77 -10 -104 -31 -140 -40 -71 -142 -220 -150 -220
-4 0 -13 40 -20 89 -16 123 -67 312 -102 387 -41 84 -77 114 -140 114 -31 0
-55 -6 -68 -17 -11 -10 -52 -101 -92 -203 -101 -257 -224 -500 -255 -500 -28
0 -31 207 -9 565 6 95 5 101 -16 120 -31 28 -137 26 -203 -3 -39 -18 -52 -30
-70 -69 -20 -43 -22 -65 -24 -234 -2 -166 -4 -196 -28 -280 -114 -410 -247
-617 -326 -509 -64 86 -116 536 -104 897 6 198 6 202 -15 223 -19 19 -31 22
-79 18 -105 -8 -153 -53 -167 -156 -11 -77 -8 -303 5 -379 9 -56 6 -81 -25
-230 -71 -345 -122 -520 -164 -558 -17 -16 -19 -15 -33 7 -9 12 -23 69 -31
126 -17 109 -20 145 -37 522 -11 260 -31 425 -55 473 -58 113 -105 147 -201
147 -48 0 -68 -5 -106 -30 -92 -58 -186 -220 -272 -470 -48 -138 -52 -147 -59
-139 -6 6 -43 361 -55 534 -6 77 -12 221 -15 320 -2 99 -9 192 -15 207 -14 37
-69 52 -142 38 -88 -17 -119 -47 -145 -142 -41 -151 -38 -431 8 -688 11 -63
21 -124 22 -136 1 -15 -42 -57 -162 -157 -89 -76 -168 -137 -175 -137 -8 0
-88 75 -178 168 -217 221 -251 284 -264 500 -8 115 13 213 71 330 39 80 136
192 183 212 63 26 151 -56 186 -174 9 -31 15 -92 15 -162 0 -108 8 -140 31
-117 31 31 40 288 14 380 -37 126 -145 175 -315 142z m3325 -1606 c-57 -420
-209 -784 -382 -915 -71 -54 -92 -60 -140 -38 -90 40 -124 153 -87 293 49 190
169 362 453 650 130 132 167 164 169 148 2 -11 -4 -73 -13 -138z m-3175 65
c69 -160 78 -385 19 -500 -29 -57 -95 -126 -129 -133 -40 -9 -89 15 -133 64
-49 55 -59 81 -59 166 -1 84 24 157 87 250 53 79 164 205 180 205 7 0 23 -24
35 -52z"/>
<path d="M2475 2629 c-30 -27 -35 -37 -35 -74 0 -54 25 -75 88 -75 110 0 164
109 79 160 -47 29 -90 26 -132 -11z"/>
<path d="M4452 2640 c-83 -51 -55 -150 41 -150 31 0 46 7 73 34 50 50 42 95
-21 122 -45 18 -54 18 -93 -6z"/>
</g>
</svg>
